HIERARCHY
ROOT hip
{
  OFFSET 0 0 0
  CHANNELS 6 Xposition Yposition Zposition Zrotation Yrotation Xrotation
  JOINT abdomen
  {
    OFFSET 0 20.6881 -0.73152
    CHANNELS 3 Zrotation Xrotation Yrotation
    JOINT chest
    {
      OFFSET 0 11.7043 -0.48768
      CHANNELS 3 Zrotation Xrotation Yrotation
      JOINT neck
      {
        OFFSET 0 22.1894 -2.19456
        CHANNELS 3 Zrotation Xrotation Yrotation
        JOINT head
        {
          OFFSET -0.24384 7.07133 1.2192
          CHANNELS 3 Zrotation Xrotation Yrotation
          JOINT leftEye
          {
            OFFSET 4.14528 8.04674 8.04672
            CHANNELS 3 Zrotation Xrotation Yrotation
            End Site
            {
              OFFSET 1 0 0
            }
          }
          JOINT rightEye
          {
            OFFSET -3.6576 8.04674 8.04672
            CHANNELS 3 Zrotation Xrotation Yrotation
            End Site
            {
              OFFSET 1 0 0
            }
          }
        }
      }
      JOINT rCollar
      {
        OFFSET -2.68224 19.2634 -4.8768
        CHANNELS 3 Zrotation Xrotation Yrotation
        JOINT rShldr
        {
          OFFSET -8.77824 -1.95073 1.46304
          CHANNELS 3 Zrotation Xrotation Yrotation
          JOINT rForeArm
          {
            OFFSET -28.1742 -1.7115 0.48768
            CHANNELS 3 Zrotation Xrotation Yrotation
            JOINT rHand
            {
              OFFSET -22.5879 0.773209 7.07136
              CHANNELS 3 Zrotation Xrotation Yrotation
              JOINT rThumb1
              {
                OFFSET -1.2192 -0.487915 3.41376
                CHANNELS 3 Zrotation Xrotation Yrotation
                JOINT rThumb2
                {
                  OFFSET -3.37035 -0.52449 3.41376
                  CHANNELS 3 Zrotation Xrotation Yrotation
                  End Site
                  {
                    OFFSET -1.78271 -1.18214 1.43049
                  }
                }
              }
              JOINT rIndex1
              {
                OFFSET -7.75947 0.938293 5.60832
                CHANNELS 3 Zrotation Xrotation Yrotation
                JOINT rIndex2
                {
                  OFFSET -2.54057 -0.884171 1.56538
                  CHANNELS 3 Zrotation Xrotation Yrotation
                  End Site
                  {
                    OFFSET -1.62519 -0.234802 1.16502
                  }
                }
              }
              JOINT rMid1
              {
                OFFSET -8.24714 1.18213 3.41376
                CHANNELS 3 Zrotation Xrotation Yrotation
                JOINT rMid2
                {
                  OFFSET -3.10165 -0.590103 1.0647
                  CHANNELS 3 Zrotation Xrotation Yrotation
                  End Site
                  {
                    OFFSET -2.48547 -0.328903 0.83742
                  }
                }
              }
              JOINT rRing1
              {
                OFFSET -8.82822 0.546677 1.51678
                CHANNELS 3 Zrotation Xrotation Yrotation
                JOINT rRing2
                {
                  OFFSET -2.60934 -0.819778 -0.0198488
                  CHANNELS 3 Zrotation Xrotation Yrotation
                  End Site
                  {
                    OFFSET -2.33842 -0.294052 0.168128
                  }
                }
              }
              JOINT rPinky1
              {
                OFFSET -8.27202 -0.0477905 -0.4584
                CHANNELS 3 Zrotation Xrotation Yrotation
                JOINT rPinky2
                {
                  OFFSET -1.82734 -0.647385 -0.700984
                  CHANNELS 3 Zrotation Xrotation Yrotation
                  End Site
                  {
                    OFFSET -1.69225 -0.51767 -0.607171
                  }
                }
              }
            }
          }
        }
      }
      JOINT lCollar
      {
        OFFSET 2.68224 19.2634 -4.8768
        CHANNELS 3 Zrotation Xrotation Yrotation
        JOINT lShldr
        {
          OFFSET 8.77824 -1.95073 1.46304
          CHANNELS 3 Zrotation Xrotation Yrotation
          JOINT lForeArm
          {
            OFFSET 28.1742 -1.7115 0.48768
            CHANNELS 3 Zrotation Xrotation Yrotation
            JOINT lHand
            {
              OFFSET 22.5879 0.773209 7.07136
              CHANNELS 3 Zrotation Xrotation Yrotation
              JOINT lThumb1
              {
                OFFSET 1.2192 -0.487915 3.41376
                CHANNELS 3 Zrotation Xrotation Yrotation
                JOINT lThumb2
                {
                  OFFSET 3.37035 -0.52449 3.41376
                  CHANNELS 3 Zrotation Xrotation Yrotation
                  End Site
                  {
                    OFFSET 1.78271 -1.18214 1.43049
                  }
                }
              }
              JOINT lIndex1
              {
                OFFSET 7.75947 0.938293 5.60832
                CHANNELS 3 Zrotation Xrotation Yrotation
                JOINT lIndex2
                {
                  OFFSET 2.54057 -0.884171 1.56538
                  CHANNELS 3 Zrotation Xrotation Yrotation
                  End Site
                  {
                    OFFSET 1.62519 -0.234802 1.16502
                  }
                }
              }
              JOINT lMid1
              {
                OFFSET 8.24714 1.18213 3.41376
                CHANNELS 3 Zrotation Xrotation Yrotation
                JOINT lMid2
                {
                  OFFSET 3.10165 -0.590103 1.0647
                  CHANNELS 3 Zrotation Xrotation Yrotation
                  End Site
                  {
                    OFFSET 2.48547 -0.328903 0.83742
                  }
                }
              }
              JOINT lRing1
              {
                OFFSET 8.82822 0.546677 1.51678
                CHANNELS 3 Zrotation Xrotation Yrotation
                JOINT lRing2
                {
                  OFFSET 2.60934 -0.819778 -0.0198488
                  CHANNELS 3 Zrotation Xrotation Yrotation
                  End Site
                  {
                    OFFSET 2.33842 -0.294052 0.168128
                  }
                }
              }
              JOINT lPinky1
              {
                OFFSET 8.27202 -0.0477905 -0.4584
                CHANNELS 3 Zrotation Xrotation Yrotation
                JOINT lPinky2
                {
                  OFFSET 1.82734 -0.647385 -0.700984
                  CHANNELS 3 Zrotation Xrotation Yrotation
                  End Site
                  {
                    OFFSET 1.69225 -0.51767 -0.607171
                  }
                }
              }
            }
          }
        }
      }
    }
  }
  JOINT rButtock
  {
    OFFSET -8.77824 4.35084 1.2192
    CHANNELS 3 Zrotation Xrotation Yrotation
    JOINT rThigh
    {
      OFFSET 0 -1.70687 -2.19456
      CHANNELS 3 Zrotation Xrotation Yrotation
      JOINT rShin
      {
        OFFSET 0 -36.8199 0.73152
        CHANNELS 3 Zrotation Xrotation Yrotation
        JOINT rFoot
        {
          OFFSET 0.73152 -45.1104 -5.12064
          CHANNELS 3 Zrotation Xrotation Yrotation
          End Site
          {
            OFFSET -1.1221 -3.69964 12.103
          }
        }
      }
    }
  }
  JOINT lButtock
  {
    OFFSET 8.77824 4.35084 1.2192
    CHANNELS 3 Zrotation Xrotation Yrotation
    JOINT lThigh
    {
      OFFSET 0 -1.70687 -2.19456
      CHANNELS 3 Zrotation Xrotation Yrotation
      JOINT lShin
      {
        OFFSET 0 -36.8199 0.73152
        CHANNELS 3 Zrotation Xrotation Yrotation
        JOINT lFoot
        {
          OFFSET -0.73152 -45.1104 -5.12064
          CHANNELS 3 Zrotation Xrotation Yrotation
          End Site
          {
            OFFSET 1.1221 -3.69964 12.103
          }
        }
      }
    }
  }
}
MOTION
Frames:	4
Frame Time:	0.03333
0.0 0.0 0.0 0.0 0.0 0.0 0.0 0.0 0.0 0.0 0.0 0.0 0.0 0.0 0.0 0.0 0.0 0.0 0.0 0.0 0.0 0.0 0.0 0.0 0.0 0.0 0.0 0.0 0.0 0.0 0.0 0.0 0.0 0.0 0.0 0.0 0.0 0.0 0.0 0.0 0.0 0.0 0.0 0.0 0.0 0.0 0.0 0.0 0.0 0.0 0.0 0.0 0.0 0.0 0.0 0.0 0.0 0.0 0.0 0.0 0.0 0.0 0.0 0.0 0.0 0.0 0.0 0.0 0.0 0.0 0.0 0.0 0.0 0.0 0.0 0.0 0.0 0.0 0.0 0.0 0.0 0.0 0.0 0.0 0.0 0.0 0.0 0.0 0.0 0.0 0.0 0.0 0.0 0.0 0.0 0.0 0.0 0.0 0.0 0.0 0.0 0.0 0.0 0.0 0.0 0.0 0.0 0.0 0.0 0.0 0.0 0.0 0.0 0.0 0.0 0.0 0.0 0.0 0.0 0.0 0.0 0.0 0.0 0.0 0.0 0.0 0.0 0.0 0.0 0.0 0.0 0.0
-0.0611 64.6736 -0.1341 -0.648019 -41.256632 -0.582723 0.298238 4.212356 -0.0 10.89503 -1.902131 -78.56703 -1.192682 -22.600175 12.558381 33.65144 -20.605571 45.646276 -167.102065 -2.268875 -19.873547 152.275696 9.479679 -37.144261 67.2777 22.605216 13.949595 11.215631 0.32414 3.410417 54.288981 78.120356 24.918523 17.831184 25.510642 -7.331258 161.921352 24.74204 57.769407 120.335869 62.385898 34.048178 -4.354544 -3.147388 -154.296861 179.649553 61.34282 19.458092 172.204624 12.818773 -89.648793 124.65223 -15.524327 -169.277759 -87.393969 -3.31121 -99.844991 19.157879 26.803071 -34.087532 21.246583 9.522099 -30.828356 -130.261213 3.5252 -98.956543 -75.017758 -4.649369 -2.549642 -10.282236 16.299925 -7.055515 175.825846 37.541585 3.153223 -8.674016 7.425015 92.876818 -167.810648 12.17986 -47.746158 -124.335355 -49.635995 -111.940574 60.638784 -62.048179 106.423535 -177.496259 32.651196 51.494128 -43.174011 48.997738 148.686439 79.33819 -48.285013 -120.83318 -117.353765 20.338533 111.822671 -128.66938 -43.926924 -112.530571 -52.04065 4.945962 39.457395 -3.882572 37.902407 25.335425 -57.198825 -11.212987 -87.001118 -7.642084 59.128497 4.052762 1.6458 -7.135793 35.79146 78.534349 -14.509766 -94.677112 -57.178748 2.990955 -94.049188 -2.314749 58.894862 1.958467 -8.350727 0.894618 -117.078562 58.024443 -45.202535 -123.909028
0.6838000000000001 61.7617 -1.0357 -7.256221 63.998209 -2.922005 -0.125319 8.003555 0.012278 1.956146 -10.839842 -9.388898 -24.48411 29.041571 -111.540402 20.908751 43.651291 128.368438 -21.176357 -7.53037 38.789476 -31.5386 -15.782234 52.285257 -91.307716 38.625391 82.892009 -110.268328 18.114191 136.471948 -135.675086 -75.126563 89.444486 132.006682 -76.594369 118.210283 -6.657899 -40.839915 -7.84696 -21.521942 21.489326 15.672487 -102.836969 30.568513 74.001939 33.383187 -22.345168 -19.943909 -4.95788 -12.305277 2.157749 -15.881018 38.56615 20.524452 98.00236 -55.965221 78.067988 -141.677237 70.004637 131.0799 57.533565 0.718598 23.4868 15.636683 70.544682 -86.198318 -12.511021 25.994862 12.672492 -37.20457 21.220384 -18.412107 -6.296445 -35.353942 -53.06741 4.670752 -6.711776 13.783531 -10.18223 15.279818 -24.241505 -179.801645 33.254589 -123.523383 -0.609177 2.162063 -1.920302 5.687035 -16.12506 -17.011778 10.324382 -2.545081 5.495455 97.377364 -8.243481 -77.09401 70.040054 27.558625 -60.055156 -32.732493 31.878758 -11.333473 124.10072 21.663229 130.61947 -8.36378 -35.950824 7.114315 -10.924843 84.067039 -168.72681 146.927502 59.150629 28.876634 14.229994 54.869913 -101.607358 108.896508 50.667915 -16.775577 -10.597748 2.862841 -10.960332 36.860164 -24.882294 79.622354 32.161568 28.12411 24.500797 5.863016 12.631423 -62.535551
2.0124 64.953 -0.8064999999999999 -6.420868 60.452861 -0.157801 -1.126741 9.496982 -0.0 1.191799 -14.591616 -6.998733 1.713015 19.108369 53.095611 -21.347574 -15.492331 -43.20006 100.458673 17.028882 -20.393866 1.904093 -0.26183 -15.657781 -161.275124 -16.359192 124.123004 -1.660789 11.776113 47.554813 -124.454478 73.424472 -165.515715 -7.241833 41.611498 -1.695008 148.418223 4.016506 95.404183 -132.684309 -37.564296 -131.024643 -140.874402 53.51398 99.605674 0.293548 -14.140373 105.707631 -105.30315 0.45275 159.306186 -28.72033 -47.410439 -123.310049 3.270415 62.398192 40.066219 120.338289 25.329276 -143.623393 165.018957 11.26354 145.270364 142.234006 -30.40359 104.387807 153.805622 46.664685 -174.014999 -0.494621 -1.114674 -42.680636 -17.52596 55.519638 108.072452 163.850606 29.603324 -128.520454 -5.145244 12.168966 -10.185557 154.146337 -16.683459 -153.311905 -27.876584 -23.860932 19.779551 -155.373763 7.00533 -80.350163 154.858728 68.409711 -141.148781 -73.239981 67.393832 152.834403 -0.391492 -3.408671 -13.432716 -140.153985 56.722427 134.803374 6.76538 -50.346216 -15.000051 103.900221 -32.103132 -32.576089 -12.651175 -36.277958 5.768653 16.436204 -0.131786 -90.051228 -53.154258 13.292246 -6.381334 86.432356 34.805895 10.108664 -150.30109 87.997788 -29.713971 -162.863405 52.534374 -13.544578 -26.018233 29.349836 -22.468784 129.255025 -3.611403 -89.911945
